<svg width="25" height="24" viewBox="0 0 25 24" fill="none" xmlns="http://www.w3.org/2000/svg">
<mask id="mask0_1629_2341" style="mask-type:alpha" maskUnits="userSpaceOnUse" x="0" y="0" width="25" height="24">
<rect x="0.625" width="24" height="24" fill="#D9D9D9"/>
</mask>
<g mask="url(#mask0_1629_2341)">
<path d="M12.625 1L21.675 6.4C21.975 6.58333 22.2083 6.83333 22.375 7.15C22.5417 7.46667 22.625 7.8 22.625 8.15V19C22.625 19.55 22.4292 20.0208 22.0375 20.4125C21.6458 20.8042 21.175 21 20.625 21H4.625C4.075 21 3.60417 20.8042 3.2125 20.4125C2.82083 20.0208 2.625 19.55 2.625 19V8.15C2.625 7.8 2.70833 7.46667 2.875 7.15C3.04167 6.83333 3.275 6.58333 3.575 6.4L12.625 1ZM12.625 12.65L20.425 8L12.625 3.35L4.825 8L12.625 12.65ZM12.625 15L4.625 10.2V19H20.625V10.2L12.625 15Z" fill="#484C52"/>
</g>
</svg>
